<svg width="1978" height="520" viewBox="0 0 1978 520" fill="none" xmlns="http://www.w3.org/2000/svg">
<path d="M281.736 71.5V111.162C281.736 118.655 284.948 125.843 290.607 130.89L320.279 157.194C324.715 161.17 327.315 166.676 327.315 172.64C327.315 178.604 324.715 184.11 320.279 188.086L294.737 210.72C286.477 218.061 281.583 228.766 281.583 239.777V458C252.987 458 226.487 458 190.883 458V278.927C190.883 272.963 193.33 267.458 197.613 263.328L230.191 232.13C234.321 228.307 236.615 222.802 236.615 217.296V216.073C236.615 210.108 234.015 204.603 229.579 200.627L199.907 174.322C194.248 169.276 191.036 162.088 191.036 154.594V63C222.987 63 251.987 63 281.736 63V71.5Z" fill="#FF463F"/>
<path d="M0 411.213C7.11239e-08 405.249 2.44727 399.743 6.72989 395.614L39.3084 364.416C43.4381 360.44 45.7324 355.087 45.7324 349.429V348.205C45.7324 342.241 43.1322 336.583 38.8496 332.759L9.17706 306.455C3.51788 301.408 0.305939 294.221 0.305939 286.727V63C30.4867 63 61 63 92.5 63L92.0765 241.765C92.0765 249.259 95.2885 256.446 100.948 261.493L130.314 287.797C134.75 291.774 137.197 297.279 137.197 303.243C137.197 309.208 134.597 314.866 130.314 318.69L104.771 341.323C96.3591 348.664 91.6177 359.369 91.6177 370.533V458C51.9867 458 33.9867 458 1 458L0 411.213Z" fill="#FF463F"/>
<path d="M281.736 71.5V111.162C281.736 118.655 284.948 125.843 290.607 130.89L320.279 157.194C324.715 161.17 327.315 166.676 327.315 172.64C327.315 178.604 324.715 184.11 320.279 188.086L294.737 210.72C286.477 218.061 281.583 228.766 281.583 239.777V458C252.987 458 226.487 458 190.883 458V278.927C190.883 272.963 193.33 267.458 197.613 263.328L230.191 232.13C234.321 228.307 236.615 222.802 236.615 217.296V216.073C236.615 210.108 234.015 204.603 229.579 200.627L199.907 174.322C194.248 169.276 191.036 162.088 191.036 154.594V63C222.987 63 251.987 63 281.736 63V71.5Z" fill="#FF463F"/>
<path d="M0 411.213C7.11239e-08 405.249 2.44727 399.743 6.72989 395.614L39.3084 364.416C43.4381 360.44 45.7324 355.087 45.7324 349.429V348.205C45.7324 342.241 43.1322 336.583 38.8496 332.759L9.17706 306.455C3.51788 301.408 0.305939 294.221 0.305939 286.727V63C30.4867 63 61 63 92.5 63L92.0765 241.765C92.0765 249.259 95.2885 256.446 100.948 261.493L130.314 287.797C134.75 291.774 137.197 297.279 137.197 303.243C137.197 309.208 134.597 314.866 130.314 318.69L104.771 341.323C96.3591 348.664 91.6177 359.369 91.6177 370.533V458C51.9867 458 33.9867 458 1 458L0 411.213Z" fill="#FF463F"/>
<path d="M643 414C626.2 414 616.733 408.133 614.6 396.4C609.533 367.867 599.533 344.133 584.6 325.2C569.933 306.267 548.467 289.467 520.2 274.8L480.6 307.6V390C480.6 397.2 478.067 403.067 473 407.6C468.2 411.867 461.8 414 453.8 414C445.8 414 439.4 411.867 434.6 407.6C429.8 403.333 427.4 397.467 427.4 390V150C427.4 142.533 429.8 136.667 434.6 132.4C439.4 128.133 445.8 126 453.8 126C461.8 126 468.2 128.267 473 132.8C478.067 137.067 480.6 142.8 480.6 150V249.6L614.2 133.2C619 128.667 624.6 126.4 631 126.4C637.4 126.4 643 128.933 647.8 134C652.867 139.6 655.4 144.8 655.4 149.6C655.4 155.2 652.2 160.8 645.8 166.4L553.8 246.4C585.8 260.267 611.267 279.867 630.2 305.2C649.4 330.267 660.867 358 664.6 388.4C665.4 395.333 663.667 401.333 659.4 406.4C655.133 411.467 649.667 414 643 414ZM731.925 414C723.925 414 717.525 411.867 712.725 407.6C707.925 403.333 705.525 397.467 705.525 390V150C705.525 142.533 707.925 136.667 712.725 132.4C717.525 128.133 723.925 126 731.925 126C739.925 126 746.325 128.267 751.125 132.8C756.192 137.067 758.725 142.8 758.725 150V245.6H902.325V150C902.325 142.8 904.725 137.067 909.525 132.8C914.592 128.267 921.125 126 929.125 126C937.125 126 943.525 128.133 948.325 132.4C953.125 136.667 955.525 142.533 955.525 150V390C955.525 397.467 953.125 403.333 948.325 407.6C943.525 411.867 937.125 414 929.125 414C921.125 414 914.592 411.867 909.525 407.6C904.725 403.067 902.325 397.2 902.325 390V286.8H758.725V390C758.725 397.2 756.192 403.067 751.125 407.6C746.325 411.867 739.925 414 731.925 414ZM1038.85 414C1030.85 414 1024.45 411.867 1019.65 407.6C1014.85 403.333 1012.45 397.467 1012.45 390V150C1012.45 142.533 1014.85 136.667 1019.65 132.4C1024.45 128.133 1030.85 126 1038.85 126C1046.58 126 1052.98 128.133 1058.05 132.4C1063.11 136.667 1065.65 142.533 1065.65 150V390C1065.65 397.467 1063.11 403.333 1058.05 407.6C1052.98 411.867 1046.58 414 1038.85 414ZM1173.52 410C1156.46 410 1142.99 405.867 1133.12 397.6C1123.26 389.333 1118.32 378.4 1118.32 364.8C1118.32 354.667 1120.32 345.867 1124.32 338.4C1128.32 330.667 1136.06 322.533 1147.52 314L1304.72 195.2C1308.19 192.533 1310.59 190.133 1311.92 188C1313.52 185.867 1314.32 183.333 1314.32 180.4C1314.32 174.267 1309.66 171.2 1300.32 171.2H1153.92C1146.19 171.2 1139.52 169.467 1133.92 166C1128.59 162.267 1125.92 157.2 1125.92 150.8C1125.92 144.133 1128.59 139.067 1133.92 135.6C1139.26 131.867 1145.92 130 1153.92 130H1312.72C1330.06 130 1343.52 134 1353.12 142C1362.99 149.733 1367.92 160.8 1367.92 175.2C1367.92 186.133 1365.92 195.2 1361.92 202.4C1357.92 209.6 1350.19 217.467 1338.72 226L1181.52 344.8C1178.06 347.467 1175.52 350 1173.92 352.4C1172.59 354.533 1171.92 357.2 1171.92 360.4C1171.92 366 1178.19 368.8 1190.72 368.8H1343.12C1350.86 368.8 1357.39 370.667 1362.72 374.4C1368.32 377.867 1371.12 382.8 1371.12 389.2C1371.12 395.867 1368.46 401.067 1363.12 404.8C1357.79 408.267 1351.12 410 1343.12 410H1173.52ZM1436.18 413.6C1428.18 413.6 1421.78 411.467 1416.98 407.2C1412.18 402.933 1409.78 397.067 1409.78 389.6V249.6C1409.78 210.933 1420.84 180.667 1442.98 158.8C1465.11 136.933 1495.91 126 1535.38 126C1561.24 126 1583.64 130.933 1602.58 140.8C1621.51 150.667 1635.91 164.933 1645.78 183.6C1655.91 202.267 1660.98 224.267 1660.98 249.6V389.6C1660.98 397.067 1658.58 402.933 1653.78 407.2C1648.98 411.467 1642.58 413.6 1634.58 413.6C1626.58 413.6 1620.04 411.467 1614.98 407.2C1610.18 402.667 1607.78 396.8 1607.78 389.6V324.4H1462.98V389.6C1462.98 396.8 1460.44 402.667 1455.38 407.2C1450.58 411.467 1444.18 413.6 1436.18 413.6ZM1607.78 283.2V248.4C1607.78 221.733 1601.64 201.733 1589.38 188.4C1577.38 174.8 1559.38 168 1535.38 168C1487.11 168 1462.98 194.8 1462.98 248.4V283.2H1607.78ZM1767.96 410C1747.7 410 1731.96 404.667 1720.76 394C1709.56 383.333 1703.96 368.4 1703.96 349.2V189.2C1703.96 170.533 1709.3 156 1719.96 145.6C1730.9 135.2 1745.96 130 1765.16 130H1857.56C1888.5 130 1912.36 136.533 1929.16 149.6C1945.96 162.667 1954.36 181.6 1954.36 206.4C1954.36 218.667 1950.76 230.133 1943.56 240.8C1936.36 251.2 1927.03 259.067 1915.56 264.4V264.8C1928.36 269.867 1938.76 278 1946.76 289.2C1955.03 300.133 1959.16 312 1959.16 324.8C1959.16 351.467 1950.5 372.4 1933.16 387.6C1916.1 402.533 1892.5 410 1862.36 410H1767.96ZM1857.56 245.6C1871.16 245.6 1881.7 242.267 1889.16 235.6C1896.9 228.933 1900.76 219.333 1900.76 206.8C1900.76 194.533 1897.16 185.467 1889.96 179.6C1882.76 173.733 1871.96 170.8 1857.56 170.8H1773.56C1768.23 170.8 1763.96 172.533 1760.76 176C1757.83 179.467 1756.36 184.267 1756.36 190.4V245.6H1857.56ZM1857.56 369.2C1889.56 369.2 1905.56 354.667 1905.56 325.6C1905.56 313.067 1901.3 303.333 1892.76 296.4C1884.5 289.467 1872.76 286 1857.56 286H1756.36V349.6C1756.36 355.733 1757.83 360.533 1760.76 364C1763.96 367.467 1768.23 369.2 1773.56 369.2H1857.56Z" fill="white"/>
</svg>
